<mxfile host="app.diagrams.net" agent="Mozilla/5.0 (Windows NT 10.0; Win64; x64) AppleWebKit/537.36 (KHTML, like Gecko) Chrome/131.0.0.0 Safari/537.36 Edg/131.0.0.0" version="26.0.5">
  <diagram name="Page-1" id="1rPzpoxqX58rYd35wdLm">
    <mxGraphModel dx="1426" dy="791" grid="1" gridSize="10" guides="1" tooltips="1" connect="1" arrows="1" fold="1" page="1" pageScale="1" pageWidth="1700" pageHeight="1100" math="0" shadow="0">
      <root>
        <mxCell id="0" />
        <mxCell id="1" parent="0" />
        <mxCell id="6EA0tXDiRwv_CL1e7f09-2" value="START" style="rounded=1;whiteSpace=wrap;html=1;" vertex="1" parent="1">
          <mxGeometry x="200" y="60" width="120" height="60" as="geometry" />
        </mxCell>
        <mxCell id="6EA0tXDiRwv_CL1e7f09-3" value="" style="edgeStyle=orthogonalEdgeStyle;rounded=0;orthogonalLoop=1;jettySize=auto;html=1;exitX=0.501;exitY=0.846;exitDx=0;exitDy=0;exitPerimeter=0;entryX=0.5;entryY=0;entryDx=0;entryDy=0;" edge="1" parent="1" source="6EA0tXDiRwv_CL1e7f09-4" target="6EA0tXDiRwv_CL1e7f09-45">
          <mxGeometry relative="1" as="geometry">
            <mxPoint x="470" y="1170" as="targetPoint" />
          </mxGeometry>
        </mxCell>
        <mxCell id="6EA0tXDiRwv_CL1e7f09-4" value="&lt;div&gt;&quot;&lt;span style=&quot;background-color: transparent;&quot;&gt;SELECT cus_admin_brh, cus_actv, cus_cus_acct_typ, cus_cus_id, cus_cus_nm, cus_cus_long_nm, crd_cr_ctl_cus_id, crd_cr_rvw_dt, crd_cr_auth FROM arrcus_rec, arrcrd_rec WHERE&lt;/span&gt;&lt;/div&gt;&lt;div&gt;&lt;span style=&quot;background-color: transparent;&quot;&gt;&amp;nbsp;crd_cus_id = cus_cus_id AND crd_cmpy_id = cus_cmpy_id AND crd_cr_auth=&#39;%-.*s&#39; AND crd_cmpy_id=&#39;%-.*s&#39;&lt;/span&gt;&lt;span style=&quot;background-color: transparent; color: light-dark(rgb(0, 0, 0), rgb(255, 255, 255));&quot;&gt;&amp;nbsp;&lt;/span&gt;&lt;b style=&quot;background-color: transparent; color: light-dark(rgb(0, 0, 0), rgb(255, 255, 255));&quot;&gt;$WhereClFilter $WhereClNxtPage&amp;nbsp;&lt;/b&gt;&lt;span style=&quot;background-color: transparent; color: light-dark(rgb(0, 0, 0), rgb(255, 255, 255));&quot;&gt;order by cus_cus_nm limit %d &quot;&lt;/span&gt;&lt;/div&gt;" style="shape=document;html=1;boundedLbl=1;whiteSpace=wrap;align=left;" vertex="1" parent="1">
          <mxGeometry x="212.5" y="910" width="520" height="180" as="geometry" />
        </mxCell>
        <UserObject label="Get User Role" link="https://viewer.diagrams.net/?tags=%7B%7D&amp;lightbox=1&amp;highlight=0000ff&amp;edit=_blank&amp;layers=1&amp;nav=1&amp;title=Get_User_Role.drawio#Uhttps%3A%2F%2Fraw.githubusercontent.com%2Feme-invera%2FCustomer_Maintenance%2Fmain%2FGet_User_Role.drawio" id="6EA0tXDiRwv_CL1e7f09-5">
          <mxCell style="ellipse;shape=cloud;whiteSpace=wrap;html=1;" vertex="1" parent="1">
            <mxGeometry x="360" y="40" width="170" height="100" as="geometry" />
          </mxCell>
        </UserObject>
        <mxCell id="6EA0tXDiRwv_CL1e7f09-6" value="&lt;div&gt;&lt;b style=&quot;color: light-dark(rgb(0, 0, 0), rgb(255, 255, 255)); background-color: transparent; text-align: left;&quot;&gt;$WhereClFilter&lt;/b&gt;&amp;nbsp;&lt;br&gt;&lt;br&gt;and (exists (select * from scrslp_rec, arrshp_rec where slp_cmpy_id = shp_cmpy_id and shp_cus_id = cus_cus_id and (slp_slp = shp_is_slp o&lt;span style=&quot;text-align: left; background-color: transparent; color: light-dark(rgb(0, 0, 0), rgb(255, 255, 255));&quot;&gt;r slp_slp = shp_os_slp) and slp_lgn_id = &#39;%-.*s&#39;) or exists (select * from mxvubf_rec where ubf_lgn_id = &#39;%-.*s&#39; and ubf_brh = cus_admin_brh))&lt;/span&gt;&lt;/div&gt;" style="shape=document;whiteSpace=wrap;html=1;boundedLbl=1;" vertex="1" parent="1">
          <mxGeometry x="910" y="80" width="520" height="130" as="geometry" />
        </mxCell>
        <mxCell id="6EA0tXDiRwv_CL1e7f09-7" value="YES" style="edgeStyle=orthogonalEdgeStyle;rounded=0;orthogonalLoop=1;jettySize=auto;html=1;exitX=1;exitY=0.5;exitDx=0;exitDy=0;" edge="1" parent="1" source="6EA0tXDiRwv_CL1e7f09-9">
          <mxGeometry relative="1" as="geometry">
            <mxPoint x="660" y="260" as="targetPoint" />
          </mxGeometry>
        </mxCell>
        <mxCell id="6EA0tXDiRwv_CL1e7f09-8" style="edgeStyle=orthogonalEdgeStyle;rounded=0;orthogonalLoop=1;jettySize=auto;html=1;exitX=0.5;exitY=1;exitDx=0;exitDy=0;" edge="1" parent="1" source="6EA0tXDiRwv_CL1e7f09-9" target="6EA0tXDiRwv_CL1e7f09-15">
          <mxGeometry relative="1" as="geometry" />
        </mxCell>
        <mxCell id="6EA0tXDiRwv_CL1e7f09-9" value="ISP or OSP Role?" style="rhombus;whiteSpace=wrap;html=1;" vertex="1" parent="1">
          <mxGeometry x="370" y="190" width="165" height="150" as="geometry" />
        </mxCell>
        <mxCell id="6EA0tXDiRwv_CL1e7f09-10" style="edgeStyle=orthogonalEdgeStyle;rounded=0;orthogonalLoop=1;jettySize=auto;html=1;exitX=0.55;exitY=0.95;exitDx=0;exitDy=0;exitPerimeter=0;entryX=0.5;entryY=0;entryDx=0;entryDy=0;" edge="1" parent="1" source="6EA0tXDiRwv_CL1e7f09-5" target="6EA0tXDiRwv_CL1e7f09-9">
          <mxGeometry relative="1" as="geometry" />
        </mxCell>
        <mxCell id="6EA0tXDiRwv_CL1e7f09-11" style="edgeStyle=orthogonalEdgeStyle;rounded=0;orthogonalLoop=1;jettySize=auto;html=1;exitX=1;exitY=0.5;exitDx=0;exitDy=0;entryX=0.059;entryY=0.5;entryDx=0;entryDy=0;entryPerimeter=0;" edge="1" parent="1" source="6EA0tXDiRwv_CL1e7f09-2" target="6EA0tXDiRwv_CL1e7f09-5">
          <mxGeometry relative="1" as="geometry" />
        </mxCell>
        <mxCell id="6EA0tXDiRwv_CL1e7f09-12" value="NO" style="edgeStyle=orthogonalEdgeStyle;rounded=0;orthogonalLoop=1;jettySize=auto;html=1;" edge="1" parent="1" source="6EA0tXDiRwv_CL1e7f09-15" target="6EA0tXDiRwv_CL1e7f09-20">
          <mxGeometry relative="1" as="geometry" />
        </mxCell>
        <mxCell id="6EA0tXDiRwv_CL1e7f09-13" value="" style="edgeStyle=orthogonalEdgeStyle;rounded=0;orthogonalLoop=1;jettySize=auto;html=1;" edge="1" parent="1" source="6EA0tXDiRwv_CL1e7f09-15" target="6EA0tXDiRwv_CL1e7f09-23">
          <mxGeometry relative="1" as="geometry" />
        </mxCell>
        <mxCell id="6EA0tXDiRwv_CL1e7f09-14" style="edgeStyle=orthogonalEdgeStyle;rounded=0;orthogonalLoop=1;jettySize=auto;html=1;exitX=0.5;exitY=1;exitDx=0;exitDy=0;" edge="1" parent="1" source="6EA0tXDiRwv_CL1e7f09-15" target="6EA0tXDiRwv_CL1e7f09-4">
          <mxGeometry relative="1" as="geometry" />
        </mxCell>
        <mxCell id="6EA0tXDiRwv_CL1e7f09-15" value="Has Other Roles?" style="rhombus;whiteSpace=wrap;html=1;" vertex="1" parent="1">
          <mxGeometry x="399" y="520" width="147" height="120" as="geometry" />
        </mxCell>
        <mxCell id="6EA0tXDiRwv_CL1e7f09-16" value="&lt;div&gt;&lt;b style=&quot;color: light-dark(rgb(0, 0, 0), rgb(255, 255, 255)); background-color: transparent; text-align: left;&quot;&gt;$WhereClFilter&lt;/b&gt;&amp;nbsp;&lt;br&gt;&lt;br&gt;and (exists (select * from scrslp_rec, arrshp_rec where slp_cmpy_id = shp_cmpy_id and shp_cus_id = cus_cus_id and (slp_slp = shp_is_slp o&lt;/div&gt;&lt;div&gt;r slp_slp = shp_os_slp) and slp_lgn_id = &#39;%-.*s&#39;) or exists (select * from mxvubf_rec where cus_admin_brh = &#39;%-.*s&#39; and&amp;nbsp; ubf_brh = &#39;%-.*s&#39;))&lt;/div&gt;" style="shape=document;whiteSpace=wrap;html=1;boundedLbl=1;" vertex="1" parent="1">
          <mxGeometry x="910" y="220" width="520" height="130" as="geometry" />
        </mxCell>
        <mxCell id="6EA0tXDiRwv_CL1e7f09-17" value="All Branch?" style="rhombus;whiteSpace=wrap;html=1;" vertex="1" parent="1">
          <mxGeometry x="660" y="200" width="140" height="120" as="geometry" />
        </mxCell>
        <mxCell id="6EA0tXDiRwv_CL1e7f09-18" value="YES" style="edgeStyle=orthogonalEdgeStyle;rounded=0;orthogonalLoop=1;jettySize=auto;html=1;exitX=0.5;exitY=0;exitDx=0;exitDy=0;entryX=0.002;entryY=0.438;entryDx=0;entryDy=0;entryPerimeter=0;" edge="1" parent="1" source="6EA0tXDiRwv_CL1e7f09-17" target="6EA0tXDiRwv_CL1e7f09-6">
          <mxGeometry relative="1" as="geometry" />
        </mxCell>
        <mxCell id="6EA0tXDiRwv_CL1e7f09-19" value="Specific" style="edgeStyle=orthogonalEdgeStyle;rounded=0;orthogonalLoop=1;jettySize=auto;html=1;exitX=1;exitY=0.5;exitDx=0;exitDy=0;entryX=0.008;entryY=0.346;entryDx=0;entryDy=0;entryPerimeter=0;" edge="1" parent="1" source="6EA0tXDiRwv_CL1e7f09-17" target="6EA0tXDiRwv_CL1e7f09-16">
          <mxGeometry relative="1" as="geometry" />
        </mxCell>
        <mxCell id="6EA0tXDiRwv_CL1e7f09-20" value="Error: User Role does not allow to access this account" style="shape=hexagon;perimeter=hexagonPerimeter2;whiteSpace=wrap;html=1;fixedSize=1;" vertex="1" parent="1">
          <mxGeometry x="120" y="525" width="160" height="110" as="geometry" />
        </mxCell>
        <mxCell id="6EA0tXDiRwv_CL1e7f09-21" value="&lt;div&gt;&lt;b style=&quot;color: light-dark(rgb(0, 0, 0), rgb(255, 255, 255)); background-color: transparent; text-align: left;&quot;&gt;$WhereClFilter&lt;/b&gt;&amp;nbsp;&lt;br&gt;&lt;br&gt;and (exists (select * from mxvubf_rec, arrshp_rec where ubf_lgn_id = &#39;%-.*s&#39; and ubf_cmpy_id = shp_cmpy_id and shp_cus_id = cus_cus_id an&lt;/div&gt;&lt;div&gt;d ubf_brh = shp_admin_brh) or exists (select * from mxvubf_rec where ubf_lgn_id = &#39;%-.*s&#39; and ubf_brh = cus_admin_brh))&lt;/div&gt;" style="shape=document;whiteSpace=wrap;html=1;boundedLbl=1;" vertex="1" parent="1">
          <mxGeometry x="920" y="400" width="520" height="130" as="geometry" />
        </mxCell>
        <mxCell id="6EA0tXDiRwv_CL1e7f09-22" value="&lt;div&gt;&lt;b style=&quot;background-color: transparent; color: light-dark(rgb(0, 0, 0), rgb(255, 255, 255)); text-align: left;&quot;&gt;$WhereClFilter&lt;/b&gt;&amp;nbsp;&lt;br&gt;&lt;br&gt;and (exists (select * from mxvubf_rec, arrshp_rec where ubf_lgn_id = &#39;%-.*s&#39; and ubf_cmpy_id = shp_cmpy_id and shp_cus_id = cus_cus_id an&lt;/div&gt;&lt;div&gt;d ubf_brh = shp_admin_brh and ubf_brh = &#39;%-.*s&#39;) or exists (select * from mxvubf_rec where cus_admin_brh = &#39;%-.*s&#39; and&amp;nbsp; &amp;nbsp;ubf_brh = &#39;%-.*s&#39;))&lt;/div&gt;" style="shape=document;whiteSpace=wrap;html=1;boundedLbl=1;" vertex="1" parent="1">
          <mxGeometry x="920" y="540" width="520" height="130" as="geometry" />
        </mxCell>
        <mxCell id="6EA0tXDiRwv_CL1e7f09-23" value="All Branch?" style="rhombus;whiteSpace=wrap;html=1;" vertex="1" parent="1">
          <mxGeometry x="670" y="520" width="140" height="120" as="geometry" />
        </mxCell>
        <mxCell id="6EA0tXDiRwv_CL1e7f09-24" value="YES" style="edgeStyle=orthogonalEdgeStyle;rounded=0;orthogonalLoop=1;jettySize=auto;html=1;exitX=0.5;exitY=0;exitDx=0;exitDy=0;entryX=0.002;entryY=0.438;entryDx=0;entryDy=0;entryPerimeter=0;" edge="1" parent="1" source="6EA0tXDiRwv_CL1e7f09-23" target="6EA0tXDiRwv_CL1e7f09-21">
          <mxGeometry relative="1" as="geometry" />
        </mxCell>
        <mxCell id="6EA0tXDiRwv_CL1e7f09-25" value="Specific" style="edgeStyle=orthogonalEdgeStyle;rounded=0;orthogonalLoop=1;jettySize=auto;html=1;exitX=1;exitY=0.5;exitDx=0;exitDy=0;entryX=0.008;entryY=0.346;entryDx=0;entryDy=0;entryPerimeter=0;" edge="1" parent="1" source="6EA0tXDiRwv_CL1e7f09-23" target="6EA0tXDiRwv_CL1e7f09-22">
          <mxGeometry relative="1" as="geometry" />
        </mxCell>
        <mxCell id="6EA0tXDiRwv_CL1e7f09-26" value="&lt;b&gt;$&lt;/b&gt;&lt;b style=&quot;text-align: left;&quot;&gt;WhereClNxtPage&amp;nbsp;&lt;br&gt;&lt;/b&gt;&quot; AND cus_cus_nm &amp;gt; &#39;%s&#39;&amp;nbsp;" style="shape=document;whiteSpace=wrap;html=1;boundedLbl=1;" vertex="1" parent="1">
          <mxGeometry x="950" y="690" width="380" height="140" as="geometry" />
        </mxCell>
        <mxCell id="6EA0tXDiRwv_CL1e7f09-27" style="edgeStyle=orthogonalEdgeStyle;rounded=0;orthogonalLoop=1;jettySize=auto;html=1;exitX=0;exitY=0.5;exitDx=0;exitDy=0;entryX=0.989;entryY=0.006;entryDx=0;entryDy=0;entryPerimeter=0;" edge="1" parent="1" source="6EA0tXDiRwv_CL1e7f09-26" target="6EA0tXDiRwv_CL1e7f09-4">
          <mxGeometry relative="1" as="geometry" />
        </mxCell>
        <mxCell id="6EA0tXDiRwv_CL1e7f09-28" style="edgeStyle=orthogonalEdgeStyle;rounded=0;orthogonalLoop=1;jettySize=auto;html=1;exitX=0.5;exitY=1;exitDx=0;exitDy=0;entryX=0.5;entryY=0;entryDx=0;entryDy=0;" edge="1" parent="1" source="6EA0tXDiRwv_CL1e7f09-29" target="6EA0tXDiRwv_CL1e7f09-31">
          <mxGeometry relative="1" as="geometry" />
        </mxCell>
        <mxCell id="6EA0tXDiRwv_CL1e7f09-29" value="&lt;div&gt;Read ARRCRA&lt;/div&gt;(Get Customer Credit and Credit Authority)" style="rounded=1;whiteSpace=wrap;html=1;" vertex="1" parent="1">
          <mxGeometry x="343.75" y="1387.5" width="257.5" height="80" as="geometry" />
        </mxCell>
        <mxCell id="6EA0tXDiRwv_CL1e7f09-30" style="edgeStyle=orthogonalEdgeStyle;rounded=0;orthogonalLoop=1;jettySize=auto;html=1;exitX=0.5;exitY=1;exitDx=0;exitDy=0;" edge="1" parent="1" source="6EA0tXDiRwv_CL1e7f09-31" target="6EA0tXDiRwv_CL1e7f09-38">
          <mxGeometry relative="1" as="geometry">
            <mxPoint x="473" y="1777.5" as="targetPoint" />
          </mxGeometry>
        </mxCell>
        <mxCell id="6EA0tXDiRwv_CL1e7f09-31" value="Read SCRCVA&lt;br&gt;(Customer Vendor and Address)" style="rounded=1;whiteSpace=wrap;html=1;" vertex="1" parent="1">
          <mxGeometry x="352" y="1577.5" width="241" height="90" as="geometry" />
        </mxCell>
        <mxCell id="6EA0tXDiRwv_CL1e7f09-32" value="NO" style="edgeStyle=orthogonalEdgeStyle;rounded=0;orthogonalLoop=1;jettySize=auto;html=1;exitX=0;exitY=0.5;exitDx=0;exitDy=0;entryX=0.5;entryY=1;entryDx=0;entryDy=0;" edge="1" parent="1" source="6EA0tXDiRwv_CL1e7f09-34" target="6EA0tXDiRwv_CL1e7f09-36">
          <mxGeometry relative="1" as="geometry" />
        </mxCell>
        <mxCell id="6EA0tXDiRwv_CL1e7f09-33" value="YES" style="edgeStyle=orthogonalEdgeStyle;rounded=0;orthogonalLoop=1;jettySize=auto;html=1;exitX=0.5;exitY=1;exitDx=0;exitDy=0;" edge="1" parent="1" source="6EA0tXDiRwv_CL1e7f09-34" target="6EA0tXDiRwv_CL1e7f09-39">
          <mxGeometry relative="1" as="geometry" />
        </mxCell>
        <mxCell id="6EA0tXDiRwv_CL1e7f09-34" value="Lines &amp;gt;= 600?" style="rhombus;whiteSpace=wrap;html=1;" vertex="1" parent="1">
          <mxGeometry x="389" y="1937.5" width="167" height="110" as="geometry" />
        </mxCell>
        <mxCell id="6EA0tXDiRwv_CL1e7f09-35" style="edgeStyle=orthogonalEdgeStyle;rounded=0;orthogonalLoop=1;jettySize=auto;html=1;entryX=0.003;entryY=0.356;entryDx=0;entryDy=0;entryPerimeter=0;" edge="1" parent="1" source="6EA0tXDiRwv_CL1e7f09-36" target="6EA0tXDiRwv_CL1e7f09-4">
          <mxGeometry relative="1" as="geometry">
            <mxPoint x="70" y="960" as="targetPoint" />
            <Array as="points">
              <mxPoint x="230" y="1290" />
              <mxPoint x="60" y="1290" />
              <mxPoint x="60" y="974" />
            </Array>
          </mxGeometry>
        </mxCell>
        <mxCell id="6EA0tXDiRwv_CL1e7f09-36" value="Fetch Next Record" style="rounded=1;whiteSpace=wrap;html=1;" vertex="1" parent="1">
          <mxGeometry x="170" y="1490" width="120" height="60" as="geometry" />
        </mxCell>
        <mxCell id="6EA0tXDiRwv_CL1e7f09-37" style="edgeStyle=orthogonalEdgeStyle;rounded=0;orthogonalLoop=1;jettySize=auto;html=1;" edge="1" parent="1" source="6EA0tXDiRwv_CL1e7f09-38" target="6EA0tXDiRwv_CL1e7f09-34">
          <mxGeometry relative="1" as="geometry" />
        </mxCell>
        <mxCell id="6EA0tXDiRwv_CL1e7f09-38" value="Populate Output Record" style="rounded=1;whiteSpace=wrap;html=1;" vertex="1" parent="1">
          <mxGeometry x="382.5" y="1777.5" width="180" height="60" as="geometry" />
        </mxCell>
        <mxCell id="6EA0tXDiRwv_CL1e7f09-39" value="Return" style="ellipse;whiteSpace=wrap;html=1;aspect=fixed;" vertex="1" parent="1">
          <mxGeometry x="433" y="2197.5" width="80" height="80" as="geometry" />
        </mxCell>
        <mxCell id="6EA0tXDiRwv_CL1e7f09-40" style="edgeStyle=orthogonalEdgeStyle;rounded=0;orthogonalLoop=1;jettySize=auto;html=1;entryX=1;entryY=0.5;entryDx=0;entryDy=0;" edge="1" parent="1" source="6EA0tXDiRwv_CL1e7f09-41" target="6EA0tXDiRwv_CL1e7f09-31">
          <mxGeometry relative="1" as="geometry" />
        </mxCell>
        <mxCell id="6EA0tXDiRwv_CL1e7f09-41" value="select * from scrcva where&amp;nbsp;ref_pfx = &#39;CU&#39; and cus_ven_typ = &#39;C&#39; and add_no = zeroes and addr_typ = O and cus_ven_id = &lt;b&gt;$input_Customer_ID&lt;/b&gt;" style="shape=document;whiteSpace=wrap;html=1;boundedLbl=1;" vertex="1" parent="1">
          <mxGeometry x="760" y="1555" width="270" height="135" as="geometry" />
        </mxCell>
        <mxCell id="6EA0tXDiRwv_CL1e7f09-42" style="edgeStyle=orthogonalEdgeStyle;rounded=0;orthogonalLoop=1;jettySize=auto;html=1;" edge="1" parent="1" source="6EA0tXDiRwv_CL1e7f09-43" target="6EA0tXDiRwv_CL1e7f09-29">
          <mxGeometry relative="1" as="geometry" />
        </mxCell>
        <mxCell id="6EA0tXDiRwv_CL1e7f09-43" value="select * from arrcra_rec where cr_auth =&amp;nbsp;&lt;b&gt;$ARRCUS_CusID&lt;/b&gt;" style="shape=document;whiteSpace=wrap;html=1;boundedLbl=1;" vertex="1" parent="1">
          <mxGeometry x="750" y="1360" width="270" height="135" as="geometry" />
        </mxCell>
        <mxCell id="6EA0tXDiRwv_CL1e7f09-44" style="edgeStyle=orthogonalEdgeStyle;rounded=0;orthogonalLoop=1;jettySize=auto;html=1;" edge="1" parent="1" source="6EA0tXDiRwv_CL1e7f09-45" target="6EA0tXDiRwv_CL1e7f09-29">
          <mxGeometry relative="1" as="geometry" />
        </mxCell>
        <mxCell id="6EA0tXDiRwv_CL1e7f09-45" value="&lt;div&gt;Read ARRCRD&lt;/div&gt;(Get Customer Credit and Credit Authority)" style="rounded=1;whiteSpace=wrap;html=1;" vertex="1" parent="1">
          <mxGeometry x="344.25" y="1190" width="257.5" height="80" as="geometry" />
        </mxCell>
        <mxCell id="6EA0tXDiRwv_CL1e7f09-46" style="edgeStyle=orthogonalEdgeStyle;rounded=0;orthogonalLoop=1;jettySize=auto;html=1;" edge="1" parent="1" source="6EA0tXDiRwv_CL1e7f09-47" target="6EA0tXDiRwv_CL1e7f09-45">
          <mxGeometry relative="1" as="geometry">
            <mxPoint x="920" y="1230" as="sourcePoint" />
          </mxGeometry>
        </mxCell>
        <mxCell id="6EA0tXDiRwv_CL1e7f09-47" value="select * from arrcrd_rec where cr_auth =&amp;nbsp;&lt;b&gt;$&lt;/b&gt;&lt;span style=&quot;text-align: left;&quot;&gt;arrcus.&lt;/span&gt;&lt;span style=&quot;text-align: left;&quot;&gt;cus_cus_id&lt;/span&gt;" style="shape=document;whiteSpace=wrap;html=1;boundedLbl=1;" vertex="1" parent="1">
          <mxGeometry x="760" y="1170" width="270" height="135" as="geometry" />
        </mxCell>
      </root>
    </mxGraphModel>
  </diagram>
</mxfile>
